<svg width="24" height="24" viewBox="0 0 24 24" fill="none" xmlns="http://www.w3.org/2000/svg">
<g clip-path="url(#clip0)">
<path d="M21.9285 20.243L20.2116 17.381C19.4186 16.06 18.9995 14.547 18.9995 13.007V10.5C18.9995 7.335 16.8876 4.65802 13.9995 3.795V2.00002C13.9995 0.897 13.1025 0 11.9995 0C10.8965 0 9.9995 0.897 9.9995 2.00002V3.795C7.11153 4.65802 4.99953 7.335 4.99953 10.5V13.007C4.99953 14.547 4.58052 16.059 3.78852 17.38L2.07153 20.242C1.97853 20.397 1.97652 20.589 2.06553 20.746C2.15455 20.903 2.31955 21 2.49955 21H21.4995C21.6795 21 21.8455 20.9031 21.9345 20.7471C22.0236 20.591 22.0206 20.397 21.9285 20.243Z" fill="#69747A"/>
<path d="M8.85071 22C9.41471 23.178 10.6087 24 11.9997 24C13.3906 24 14.5847 23.178 15.1487 22H8.85071Z" fill="#69747A"/>
</g>
<defs>
<clipPath id="clip0">
<rect width="24" height="24" fill="white"/>
</clipPath>
</defs>
</svg>
